<svg width="500" height="500" viewBox="0 0 500 500" fill="none" xmlns="http://www.w3.org/2000/svg">
<path d="M8.62402 313.143H19.124C22.8324 313.143 25.7803 312.211 27.9782 310.351C30.1709 308.502 31.7594 306.133 32.749 303.247C33.749 300.372 34.249 297.357 34.249 294.206C34.249 289.195 34.2594 284.716 34.2907 280.768C34.3324 276.825 34.3532 272.904 34.3532 268.997C34.3532 265.081 34.3532 260.622 34.3532 255.622C34.3532 252.945 34.2594 249.945 34.0824 246.622C33.9157 243.289 33.5407 239.862 32.9574 236.331C32.374 232.789 31.4469 229.362 30.1865 226.039C28.9209 222.706 27.1865 219.706 24.9782 217.039H49.6865C47.4886 219.706 45.7542 222.706 44.4782 226.039C43.2126 229.362 42.2907 232.789 41.7074 236.331C41.124 239.862 40.7386 243.289 40.5615 246.622C40.3949 249.945 40.3115 252.945 40.3115 255.622V301.622C40.3115 308.065 39.4001 313.752 37.5824 318.685C35.7751 323.627 33.0511 327.502 29.4157 330.31C25.7751 333.127 21.249 334.539 15.8324 334.539C13.7074 334.539 12.1292 334.445 11.1032 334.268C10.0719 334.101 9.24902 333.883 8.62402 333.622V313.143ZM37.3324 183.789C40.0094 183.789 42.4469 184.445 44.6449 185.747C46.8376 187.055 48.5876 188.805 49.8949 190.997C51.1969 193.195 51.8532 195.633 51.8532 198.31C51.8532 200.976 51.1969 203.414 49.8949 205.622C48.5876 207.82 46.8376 209.57 44.6449 210.872C42.4469 212.164 40.0094 212.81 37.3324 212.81C34.7178 212.81 32.3167 212.164 30.124 210.872C27.9261 209.57 26.1761 207.82 24.874 205.622C23.5824 203.414 22.9365 200.976 22.9365 198.31C22.9365 195.633 23.5824 193.195 24.874 190.997C26.1761 188.805 27.9261 187.055 30.124 185.747C32.3167 184.445 34.7178 183.789 37.3324 183.789Z" fill="#272727"/>
<path d="M101.848 296.268C96.0824 296.268 90.6813 295.341 85.6396 293.497C80.598 291.638 76.1501 288.945 72.3063 285.414C68.473 281.872 65.473 277.601 63.3063 272.601C61.1501 267.591 60.0771 261.93 60.0771 255.622C60.0771 249.305 61.1501 243.643 63.3063 238.643C65.473 233.633 68.473 229.383 72.3063 225.893C76.1501 222.393 80.598 219.721 85.6396 217.872C90.6813 216.013 96.0824 215.081 101.848 215.081C107.608 215.081 113.015 216.013 118.056 217.872C123.098 219.721 127.535 222.393 131.369 225.893C135.213 229.383 138.213 233.633 140.369 238.643C142.535 243.643 143.619 249.305 143.619 255.622C143.619 261.93 142.535 267.591 140.369 272.601C138.213 277.601 135.213 281.872 131.369 285.414C127.535 288.945 123.098 291.638 118.056 293.497C113.015 295.341 107.608 296.268 101.848 296.268ZM66.0355 255.518C66.0355 260.117 67.6084 263.893 70.7646 266.851C73.9313 269.799 78.2021 271.992 83.5771 273.435C88.9626 274.867 95.0199 275.581 101.744 275.581C108.463 275.581 114.535 274.867 119.952 273.435C125.379 271.992 129.687 269.799 132.869 266.851C136.062 263.893 137.66 260.117 137.66 255.518C137.66 250.924 136.062 247.185 132.869 244.31C129.687 241.424 125.379 239.278 119.952 237.872C114.535 236.471 108.463 235.768 101.744 235.768C95.0199 235.768 88.9626 236.471 83.5771 237.872C78.2021 239.278 73.9313 241.424 70.7646 244.31C67.6084 247.185 66.0355 250.924 66.0355 255.518Z" fill="#FF69B4"/>
<path d="M148.768 217.039H188.58C179.59 222.872 173.268 228.685 169.601 234.476C165.934 240.268 164.101 246.393 164.101 252.851C164.101 257.575 165.398 261.654 167.997 265.081C170.606 268.513 174.226 271.159 178.851 273.018C183.486 274.867 188.83 275.789 194.872 275.789C198.497 275.789 202.09 275.279 205.663 274.247C209.231 273.221 212.455 271.726 215.33 269.768C218.215 267.81 220.538 265.409 222.288 262.56C224.038 259.716 224.913 256.476 224.913 252.851C224.913 246.393 223.07 240.268 219.393 234.476C215.726 228.685 209.398 222.872 200.413 217.039H240.247C237.288 220.612 235.153 224.659 233.851 229.185C232.559 233.716 231.736 238.279 231.393 242.872C231.044 247.456 230.872 251.706 230.872 255.622C230.872 259.456 231.044 263.695 231.393 268.331C231.736 272.956 232.559 277.534 233.851 282.06C235.153 286.591 237.288 290.638 240.247 294.206H224.913V266.622C224.424 268.279 223.684 270.341 222.684 272.81C221.695 275.268 220.309 277.862 218.518 280.581C216.736 283.289 214.507 285.825 211.83 288.185C209.163 290.549 205.924 292.487 202.122 293.997C198.314 295.508 193.872 296.268 188.788 296.268C183.163 296.268 178.481 295.445 174.747 293.81C171.007 292.159 168.023 289.976 165.788 287.268C163.564 284.56 161.903 281.633 160.809 278.476C159.71 275.31 158.976 272.206 158.601 269.164C158.226 266.112 158.049 263.367 158.08 260.935C158.106 258.492 158.122 256.721 158.122 255.622C158.122 250.956 158.038 246.825 157.872 243.226C157.705 239.617 157.33 236.341 156.747 233.393C156.163 230.45 155.231 227.659 153.955 225.018C152.689 222.367 150.96 219.706 148.768 217.039Z" fill="#FF69B4"/>
<path d="M252.692 242.851C252.692 235.383 252.515 228.424 252.171 221.976C251.838 215.534 251.015 209.721 249.713 204.539C248.405 199.362 246.28 194.987 243.338 191.414H280.692C274.718 195.263 270.135 199.555 266.942 204.289C263.76 209.013 261.588 214.138 260.421 219.664C259.254 225.18 258.671 231.133 258.671 237.518V254.997C258.671 261.654 260.025 266.763 262.733 270.331C265.442 273.904 269.4 275.685 274.608 275.685C276.051 275.685 277.494 275.518 278.942 275.185C280.385 274.841 281.655 274.284 282.754 273.518V291.018C282.754 292.117 282.181 293.075 281.046 293.893C279.921 294.711 278.551 295.331 276.942 295.747C275.327 296.164 273.801 296.372 272.358 296.372C266.801 296.372 262.614 295.133 259.796 292.664C256.989 290.195 255.098 286.716 254.129 282.226C253.171 277.726 252.692 272.529 252.692 266.622V242.851Z" fill="#272727"/>
<path d="M288.921 274.456C288.921 269.721 290.051 265.659 292.317 262.268C294.577 258.867 297.614 256.091 301.421 253.935C305.223 251.768 309.473 250.195 314.171 249.206C318.879 248.206 323.702 247.706 328.65 247.706C335.634 247.706 341.838 248.393 347.254 249.768C352.681 251.133 357.046 253.081 360.338 255.622C359.921 251.706 358.681 248.279 356.629 245.331C354.572 242.388 351.384 240.096 347.067 238.456C342.744 236.805 336.879 235.976 329.463 235.976C327.265 235.976 324.884 236.049 322.317 236.185C319.744 236.31 317.223 236.596 314.754 237.039C312.28 237.487 310.067 238.138 308.108 238.997C306.16 239.862 304.692 240.976 303.692 242.351C302.692 243.726 302.431 245.409 302.921 247.393C299.348 247.466 296.447 246.518 294.213 244.56C291.989 242.601 290.879 239.534 290.879 235.351C290.879 231.575 292.244 228.164 294.983 225.122C297.733 222.07 301.931 219.617 307.588 217.768C313.254 215.909 320.473 214.976 329.254 214.976C337.004 214.976 343.317 215.956 348.192 217.914C353.067 219.862 356.822 222.43 359.463 225.622C362.098 228.82 363.91 232.351 364.9 236.226C365.9 240.101 366.4 243.966 366.4 247.81C366.4 248.424 366.41 249.57 366.442 251.247C366.483 252.93 366.504 254.612 366.504 256.289C366.504 257.971 366.504 259.154 366.504 259.831C366.504 266.695 366.91 272.372 367.733 276.872C368.567 281.362 369.509 284.862 370.567 287.372C371.634 289.872 372.577 291.638 373.4 292.664C374.218 293.695 374.629 294.206 374.629 294.206H360.546V275.268C357.254 281.716 352.379 286.825 345.921 290.601C339.473 294.377 331.452 296.268 321.858 296.268C317.468 296.268 313.301 295.872 309.358 295.081C305.41 294.289 301.89 293.039 298.796 291.331C295.713 289.612 293.296 287.362 291.546 284.581C289.796 281.805 288.921 278.43 288.921 274.456ZM334.817 254.289C330.009 254.289 325.567 254.805 321.483 255.831C317.4 256.862 314.119 258.305 311.65 260.164C309.192 262.013 307.963 264.2 307.963 266.726C307.963 269.758 309.452 271.924 312.442 273.226C315.426 274.518 319.421 275.164 324.421 275.164C332.588 275.164 339.614 274.159 345.504 272.143C351.405 270.117 356.421 266.909 360.546 262.518V261.581C358.89 260.414 356.931 259.284 354.671 258.185C352.405 257.091 349.66 256.164 346.442 255.414C343.218 254.664 339.343 254.289 334.817 254.289Z" fill="#FF69B4"/>
<path d="M380.802 274.456C380.802 269.721 381.932 265.659 384.198 262.268C386.458 258.867 389.495 256.091 393.302 253.935C397.104 251.768 401.354 250.195 406.052 249.206C410.761 248.206 415.583 247.706 420.531 247.706C427.516 247.706 433.719 248.393 439.136 249.768C444.563 251.133 448.927 253.081 452.219 255.622C451.802 251.706 450.563 248.279 448.511 245.331C446.453 242.388 443.266 240.096 438.948 238.456C434.625 236.805 428.761 235.976 421.344 235.976C419.146 235.976 416.766 236.049 414.198 236.185C411.625 236.31 409.104 236.596 406.636 237.039C404.162 237.487 401.948 238.138 399.99 238.997C398.042 239.862 396.573 240.976 395.573 242.351C394.573 243.726 394.313 245.409 394.802 247.393C391.229 247.466 388.328 246.518 386.094 244.56C383.87 242.601 382.761 239.534 382.761 235.351C382.761 231.575 384.125 228.164 386.865 225.122C389.615 222.07 393.813 219.617 399.469 217.768C405.136 215.909 412.354 214.976 421.136 214.976C428.886 214.976 435.198 215.956 440.073 217.914C444.948 219.862 448.703 222.43 451.344 225.622C453.979 228.82 455.792 232.351 456.781 236.226C457.781 240.101 458.281 243.966 458.281 247.81C458.281 248.424 458.292 249.57 458.323 251.247C458.365 252.93 458.386 254.612 458.386 256.289C458.386 257.971 458.386 259.154 458.386 259.831C458.386 266.695 458.792 272.372 459.615 276.872C460.448 281.362 461.391 284.862 462.448 287.372C463.516 289.872 464.458 291.638 465.281 292.664C466.099 293.695 466.511 294.206 466.511 294.206H452.427V275.268C449.136 281.716 444.261 286.825 437.802 290.601C431.354 294.377 423.333 296.268 413.74 296.268C409.349 296.268 405.182 295.872 401.24 295.081C397.292 294.289 393.771 293.039 390.677 291.331C387.594 289.612 385.177 287.362 383.427 284.581C381.677 281.805 380.802 278.43 380.802 274.456ZM426.698 254.289C421.891 254.289 417.448 254.805 413.365 255.831C409.281 256.862 406 258.305 403.531 260.164C401.073 262.013 399.844 264.2 399.844 266.726C399.844 269.758 401.333 271.924 404.323 273.226C407.307 274.518 411.302 275.164 416.302 275.164C424.469 275.164 431.495 274.159 437.386 272.143C443.287 270.117 448.302 266.909 452.427 262.518V261.581C450.771 260.414 448.813 259.284 446.552 258.185C444.287 257.091 441.542 256.164 438.323 255.414C435.099 254.664 431.224 254.289 426.698 254.289Z" fill="#FF69B4"/>
<mask id="mask0_1186_1179" style="mask-type:luminance" maskUnits="userSpaceOnUse" x="465" y="269" width="23" height="23">
<path d="M465.333 269.021H487.458V291.24H465.333V269.021Z" fill="white"/>
</mask>
<g mask="url(#mask0_1186_1179)">
<mask id="mask1_1186_1179" style="mask-type:luminance" maskUnits="userSpaceOnUse" x="465" y="269" width="23" height="23">
<path d="M466.276 272.563C464.359 275.948 465.75 279.24 467.328 280.99L476.547 291.193L485.573 281.026C487.036 279.146 487.635 277.151 487.286 274.927C486.854 271.854 484.661 269.469 481.948 269.13C480.286 268.922 478.677 269.464 477.427 270.667C477.088 270.99 476.786 271.354 476.521 271.745C476.213 271.297 475.844 270.891 475.432 270.526C473.989 269.26 472.156 268.76 470.39 269.151C468.724 269.521 467.224 270.766 466.276 272.563Z" fill="white"/>
</mask>
<g mask="url(#mask1_1186_1179)">
<path d="M465.406 269.021H487.37V291.156H465.406V269.021Z" fill="#C32F34"/>
</g>
</g>
<mask id="mask2_1186_1179" style="mask-type:luminance" maskUnits="userSpaceOnUse" x="177" y="233" width="37" height="35">
<path d="M177.333 233.333H213.333V268H177.333V233.333Z" fill="white"/>
</mask>
<g mask="url(#mask2_1186_1179)">
<mask id="mask3_1186_1179" style="mask-type:luminance" maskUnits="userSpaceOnUse" x="177" y="232" width="36" height="36">
<path d="M177.276 233.604L211.271 232.797L212.073 266.786L178.083 267.594L177.276 233.604Z" fill="white"/>
</mask>
<g mask="url(#mask3_1186_1179)">
<mask id="mask4_1186_1179" style="mask-type:luminance" maskUnits="userSpaceOnUse" x="177" y="232" width="36" height="36">
<path d="M177.276 233.604L211.271 232.797L212.073 266.786L178.083 267.594L177.276 233.604Z" fill="white"/>
</mask>
<g mask="url(#mask4_1186_1179)">
<path d="M207.849 248.922C208.114 249.073 208.38 249.219 208.641 249.38C209.989 250.198 211.094 251.255 211.719 252.74C212.078 253.604 212.146 254.5 211.969 255.422C211.755 256.521 211.396 257.563 210.739 258.479C209.838 259.734 208.693 260.698 207.135 260.964C205.906 261.172 204.667 261.099 203.5 260.552C203.177 260.396 202.844 260.266 202.542 260.063C202.469 260.01 202.37 259.995 202.286 259.964C202.161 260.141 202.219 260.307 202.219 260.464C202.213 261.922 201.76 263.188 200.734 264.266C199.5 265.568 198.052 266.469 196.307 266.891C194.995 267.203 193.729 267.089 192.495 266.557C191.812 266.266 191.187 265.896 190.635 265.406C189.812 264.667 189.286 263.734 188.969 262.688C188.755 261.99 188.594 261.276 188.599 260.536C188.599 260.135 188.536 260.104 188.167 260.302C187.495 260.667 186.812 261.01 186.083 261.255C185.088 261.594 184.073 261.818 183.021 261.76C181.823 261.693 180.734 261.297 179.828 260.474C179.203 259.906 178.677 259.281 178.364 258.484C177.838 257.135 177.937 255.802 178.495 254.495C179.068 253.151 179.969 252.089 181.307 251.438C181.427 251.38 181.536 251.307 181.641 251.24C181.667 251.224 181.677 251.182 181.708 251.125C181.213 250.698 180.672 250.307 180.208 249.833C179.12 248.729 178.568 247.411 178.672 245.859C178.771 244.375 179.453 243.151 180.573 242.188C181.281 241.573 182.052 241.068 183 240.88C183.693 240.745 184.391 240.745 185.088 240.813C185.797 240.885 186.495 241.026 187.219 241.188C187.328 240.792 187.427 240.417 187.536 240.047C188 238.448 188.76 236.99 189.75 235.667C190.578 234.552 191.693 233.797 193.057 233.557C195.016 233.219 196.802 233.911 197.87 235.76C198.453 236.776 198.771 237.875 198.979 239.021C199.057 239.443 199.052 239.891 199.271 240.318C199.781 239.979 200.276 239.641 200.781 239.318C201.828 238.651 202.917 238.073 204.156 237.844C205.458 237.599 206.75 237.646 207.984 238.177C208.844 238.547 209.656 238.995 210.307 239.682C211.266 240.703 211.818 241.891 211.693 243.307C211.594 244.448 211.151 245.479 210.474 246.406C209.849 247.255 209.109 247.979 208.245 248.578C208.114 248.667 207.953 248.729 207.849 248.922ZM195.75 253.438C195.844 253.438 195.943 253.432 196.042 253.432C197.219 253.396 198.114 252.88 198.76 251.885C199.349 250.974 199.427 250.01 199.167 248.99C199.083 248.661 199.021 248.328 198.859 248.021C198.422 247.193 197.828 246.526 197 246.073C195.958 245.505 194.896 245.37 193.776 245.823C192.828 246.198 192.141 246.859 191.609 247.708C191.26 248.271 191.016 248.88 191.005 249.536C190.984 250.646 191.432 251.552 192.333 252.219C193.349 252.979 194.443 253.505 195.75 253.438Z" fill="#272727"/>
</g>
</g>
</g>
<mask id="mask5_1186_1179" style="mask-type:luminance" maskUnits="userSpaceOnUse" x="30" y="189" width="17" height="17">
<path d="M30.6667 189.333H46.6667V205.333H30.6667V189.333Z" fill="white"/>
</mask>
<g mask="url(#mask5_1186_1179)">
<mask id="mask6_1186_1179" style="mask-type:luminance" maskUnits="userSpaceOnUse" x="28" y="186" width="21" height="21">
<path d="M36.5887 186.833L48.4481 195.042L40.2397 206.901L28.3804 198.693L36.5887 186.833Z" fill="white"/>
</mask>
<g mask="url(#mask6_1186_1179)">
<mask id="mask7_1186_1179" style="mask-type:luminance" maskUnits="userSpaceOnUse" x="31" y="189" width="15" height="16">
<path d="M42.5211 190.938C39.2451 188.667 34.7503 189.49 32.4847 192.761C30.2138 196.037 31.0367 200.531 34.3128 202.797C37.5836 205.068 42.0784 204.245 44.344 200.969C46.6149 197.698 45.7919 193.203 42.5211 190.938Z" fill="white"/>
</mask>
<g mask="url(#mask7_1186_1179)">
<path d="M36.5887 186.833L48.4481 195.042L40.2397 206.901L28.3804 198.693L36.5887 186.833Z" fill="white"/>
</g>
</g>
</g>
<mask id="mask8_1186_1179" style="mask-type:luminance" maskUnits="userSpaceOnUse" x="20" y="178" width="38" height="38">
<path d="M20 178.667H57.3333V216H20V178.667Z" fill="white"/>
</mask>
<g mask="url(#mask8_1186_1179)">
<mask id="mask9_1186_1179" style="mask-type:luminance" maskUnits="userSpaceOnUse" x="19" y="178" width="39" height="38">
<path d="M19.4688 178.963L56.4583 178.083L57.3385 215.073L20.349 215.953L19.4688 178.963Z" fill="white"/>
</mask>
<g mask="url(#mask9_1186_1179)">
<mask id="mask10_1186_1179" style="mask-type:luminance" maskUnits="userSpaceOnUse" x="19" y="178" width="39" height="38">
<path d="M19.4688 178.963L56.4583 178.083L57.3385 215.073L20.349 215.953L19.4688 178.963Z" fill="white"/>
</mask>
<g mask="url(#mask10_1186_1179)">
<path d="M52.4064 195.474C52.6876 195.635 52.9741 195.792 53.2553 195.963C54.7137 196.849 55.9012 197.984 56.573 199.588C56.9584 200.515 57.0366 201.484 56.8439 202.474C56.6147 203.656 56.2241 204.781 55.5209 205.765C54.5522 207.12 53.3178 208.161 51.6355 208.443C50.3126 208.667 48.9741 208.594 47.7189 208C47.3699 207.833 47.0105 207.693 46.6876 207.474C46.6043 207.417 46.5001 207.401 46.4116 207.364C46.2762 207.557 46.3387 207.734 46.3387 207.901C46.3334 209.479 45.8439 210.844 44.7397 212.005C43.4116 213.406 41.8543 214.375 39.9689 214.828C38.5574 215.167 37.198 215.042 35.8647 214.474C35.1303 214.156 34.4532 213.76 33.8595 213.229C32.9741 212.432 32.4064 211.427 32.0678 210.302C31.8387 209.547 31.6616 208.781 31.6668 207.984C31.6668 207.552 31.5939 207.515 31.2032 207.729C30.4741 208.125 29.7397 208.495 28.9584 208.76C27.8855 209.125 26.7866 209.364 25.6564 209.302C24.3647 209.234 23.1928 208.807 22.2137 207.917C21.547 207.307 20.9741 206.63 20.6407 205.776C20.073 204.318 20.1824 202.885 20.7814 201.479C21.3959 200.026 22.3699 198.885 23.8126 198.182C23.9376 198.12 24.0574 198.042 24.172 197.969C24.198 197.953 24.2084 197.911 24.2397 197.849C23.7084 197.385 23.1251 196.969 22.6251 196.453C21.4584 195.26 20.8595 193.844 20.9741 192.177C21.0834 190.573 21.8126 189.255 23.0209 188.213C23.7814 187.557 24.6147 187.01 25.6303 186.807C26.3803 186.661 27.1303 186.661 27.8803 186.734C28.6459 186.812 29.4012 186.963 30.1824 187.135C30.297 186.713 30.4064 186.312 30.5209 185.911C31.0209 184.187 31.8387 182.62 32.9064 181.187C33.8022 179.995 34.9949 179.177 36.4689 178.922C38.5782 178.552 40.5053 179.302 41.6512 181.292C42.2814 182.39 42.6251 183.573 42.8491 184.802C42.9324 185.26 42.9272 185.739 43.1616 186.203C43.7137 185.838 44.2449 185.474 44.7866 185.125C45.9168 184.406 47.0939 183.781 48.422 183.536C49.8282 183.276 51.2189 183.323 52.5522 183.896C53.4741 184.297 54.3491 184.776 55.0522 185.521C56.0834 186.614 56.6772 187.896 56.547 189.422C56.4376 190.656 55.9637 191.765 55.2293 192.76C54.5626 193.672 53.7657 194.453 52.8334 195.099C52.6928 195.198 52.5157 195.265 52.4064 195.474ZM39.3699 200.338C39.4741 200.333 39.5782 200.333 39.6824 200.328C40.9532 200.292 41.9168 199.734 42.6095 198.667C43.2449 197.682 43.3282 196.646 43.0522 195.547C42.9584 195.193 42.8959 194.828 42.7189 194.5C42.2501 193.609 41.6095 192.89 40.7189 192.406C39.5991 191.792 38.4532 191.646 37.2449 192.13C36.2241 192.542 35.4793 193.25 34.9116 194.167C34.5314 194.771 34.2657 195.427 34.2553 196.135C34.2397 197.328 34.7189 198.302 35.6876 199.026C36.7814 199.838 37.9637 200.406 39.3699 200.338Z" fill="#272727"/>
</g>
</g>
</g>
<mask id="mask11_1186_1179" style="mask-type:luminance" maskUnits="userSpaceOnUse" x="94" y="248" width="17" height="15">
<path d="M94.6667 248H110.667V262.667H94.6667V248Z" fill="white"/>
</mask>
<g mask="url(#mask11_1186_1179)">
<mask id="mask12_1186_1179" style="mask-type:luminance" maskUnits="userSpaceOnUse" x="92" y="245" width="21" height="21">
<path d="M101.104 245.182L112.969 253.391L104.761 265.255L92.896 257.047L101.104 245.182Z" fill="white"/>
</mask>
<g mask="url(#mask12_1186_1179)">
<mask id="mask13_1186_1179" style="mask-type:luminance" maskUnits="userSpaceOnUse" x="95" y="248" width="16" height="15">
<path d="M107.037 249.286C103.761 247.021 99.271 247.839 97.0002 251.115C94.7346 254.391 95.5523 258.885 98.8283 261.151C102.104 263.417 106.599 262.599 108.865 259.323C111.13 256.047 110.313 251.552 107.037 249.286Z" fill="white"/>
</mask>
<g mask="url(#mask13_1186_1179)">
<path d="M101.104 245.182L112.969 253.391L104.761 265.255L92.896 257.047L101.104 245.182Z" fill="#272727"/>
</g>
</g>
</g>
<mask id="mask14_1186_1179" style="mask-type:luminance" maskUnits="userSpaceOnUse" x="49" y="302" width="160" height="28">
<path d="M49.3333 302.667H208.234V329.287H49.3333V302.667Z" fill="white"/>
</mask>
<g mask="url(#mask14_1186_1179)">
<path d="M51.328 328.938C62.4947 323.167 75.5155 321.839 87.8957 321.537C101.219 321.193 114.51 322.068 127.76 323.281C141.161 324.537 154.526 326.094 167.969 327.042C174.651 327.495 181.37 327.761 188.094 327.802C194.396 327.839 200.776 327.875 207.078 327.12C213.417 326.359 219.76 324.573 224.62 320.208C228.87 316.37 231.948 310.526 230.771 304.714C230.276 302.287 226.479 302.854 226.479 305.287C226.515 310.448 224.505 314.818 220.515 318.083C216.036 321.766 210.036 323.057 204.458 323.74C191.776 325.219 178.864 324.724 166.146 323.854C140.328 322.031 114.583 317.818 88.6509 318.724C75.4426 319.146 62.078 320.662 50.5728 327.651C49.7342 328.141 50.4582 329.396 51.328 328.938Z" fill="#272727"/>
</g>
<path d="M56.3438 320.51C67.6563 316.37 79.349 315.385 91.3125 315.307C91.9584 315.307 92.1823 314.208 91.4636 314.13C79.5052 312.349 67.0469 315.198 56.0782 320.016C55.849 320.13 56.0365 320.625 56.3438 320.51Z" fill="#272727"/>
<path d="M232.263 318.165L237.888 311.894H238.805V326.415H235.888L235.909 318.436L232.263 322.269L228.597 318.436V326.415H225.701V311.894H226.617L232.263 318.165Z" fill="#272727"/>
<path d="M252.256 326.624C251.032 326.624 249.954 326.415 249.026 325.999C248.094 325.582 247.323 325.03 246.714 324.332C246.099 323.624 245.641 322.832 245.339 321.957C245.032 321.082 244.881 320.181 244.881 319.249C244.881 318.321 245.032 317.415 245.339 316.54C245.641 315.655 246.099 314.863 246.714 314.165C247.323 313.472 248.094 312.915 249.026 312.499C249.954 312.082 251.032 311.874 252.256 311.874C253.474 311.874 254.552 312.082 255.485 312.499C256.412 312.915 257.183 313.472 257.797 314.165C258.407 314.863 258.865 315.655 259.172 316.54C259.474 317.415 259.631 318.321 259.631 319.249C259.631 320.181 259.474 321.082 259.172 321.957C258.865 322.832 258.407 323.624 257.797 324.332C257.183 325.03 256.412 325.582 255.485 325.999C254.552 326.415 253.474 326.624 252.256 326.624ZM252.256 323.665C253.073 323.665 253.776 323.509 254.36 323.186C254.943 322.853 255.407 322.431 255.756 321.915C256.099 321.389 256.329 320.811 256.443 320.186C256.568 319.551 256.568 318.915 256.443 318.29C256.329 317.665 256.099 317.092 255.756 316.561C255.407 316.035 254.943 315.613 254.36 315.29C253.776 314.972 253.073 314.811 252.256 314.811C251.433 314.811 250.735 314.972 250.151 315.29C249.568 315.613 249.099 316.035 248.756 316.561C248.407 317.092 248.172 317.665 248.047 318.29C247.933 318.915 247.933 319.551 248.047 320.186C248.172 320.811 248.407 321.389 248.756 321.915C249.099 322.431 249.568 322.853 250.151 323.186C250.735 323.509 251.433 323.665 252.256 323.665Z" fill="#272727"/>
<path d="M272.806 326.415L269.91 320.957H268.535V326.415H265.681V312.124H271.326C272.17 312.124 272.889 312.301 273.472 312.644C274.066 312.993 274.535 313.452 274.868 314.019C275.201 314.592 275.41 315.207 275.493 315.874C275.576 316.53 275.524 317.176 275.347 317.811C275.165 318.436 274.858 318.993 274.431 319.478C273.998 319.967 273.431 320.311 272.722 320.519L276.035 326.415H272.806ZM268.535 318.165H271.056C271.441 318.165 271.748 318.061 271.972 317.853C272.207 317.644 272.368 317.384 272.451 317.061C272.535 316.743 272.535 316.426 272.451 316.103C272.368 315.785 272.207 315.519 271.972 315.311C271.748 315.092 271.441 314.978 271.056 314.978H268.535V318.165Z" fill="#272727"/>
<path d="M288.696 326.415H281.301V312.124H288.446V314.978H284.155V317.832H287.926V320.686H284.155V323.561H288.696V326.415Z" fill="#272727"/>
<path d="M303.781 326.415V312.103H309.426C310.286 312.103 311.02 312.29 311.635 312.665C312.244 313.03 312.708 313.535 313.031 314.186C313.364 314.842 313.515 315.592 313.489 316.436C313.473 316.967 313.364 317.493 313.156 318.019C312.958 318.535 312.635 318.946 312.176 319.248C312.645 319.571 313.01 319.988 313.26 320.498C313.52 321.014 313.656 321.556 313.656 322.123C313.656 322.915 313.458 323.639 313.072 324.29C312.697 324.931 312.187 325.446 311.551 325.832C310.911 326.222 310.202 326.415 309.426 326.415H303.781ZM306.656 314.957V317.832H309.197C309.614 317.832 309.932 317.696 310.156 317.415C310.39 317.123 310.51 316.785 310.51 316.394C310.51 315.993 310.39 315.655 310.156 315.373C309.932 315.097 309.614 314.957 309.197 314.957H306.656ZM306.656 320.686V323.561H309.197C309.614 323.561 309.952 323.426 310.218 323.144C310.494 322.853 310.635 322.514 310.635 322.123C310.635 321.722 310.494 321.384 310.218 321.103C309.952 320.827 309.614 320.686 309.197 320.686H306.656Z" fill="#272727"/>
<path d="M326.956 326.415H319.561V312.124H326.706V314.978H322.415V317.832H326.186V320.686H322.415V323.561H326.956V326.415Z" fill="#272727"/>
<path d="M331.709 326.415L337.73 311.603H338.042L344.063 326.415H340.834L340.251 324.873H335.521L334.959 326.415H331.709ZM336.563 322.186H339.188L337.896 318.478L336.563 322.186Z" fill="#272727"/>
<path d="M359.67 321.436C359.67 322.41 359.483 323.243 359.108 323.936C358.743 324.634 358.254 325.186 357.629 325.603C357.014 326.009 356.342 326.28 355.608 326.415C354.884 326.566 354.15 326.566 353.4 326.415C352.66 326.28 351.988 326.009 351.379 325.603C350.764 325.186 350.275 324.634 349.9 323.936C349.525 323.243 349.337 322.41 349.337 321.436V312.124H352.191V321.415C352.191 322.014 352.342 322.493 352.65 322.853C352.967 323.217 353.358 323.457 353.816 323.582C354.285 323.696 354.754 323.696 355.212 323.582C355.67 323.457 356.051 323.217 356.358 322.853C356.676 322.493 356.837 322.014 356.837 321.415V312.124H359.67V321.436Z" fill="#272727"/>
<path d="M371.409 326.415H368.555V314.978H364.992V312.144H374.971V314.978H371.409V326.415Z" fill="#272727"/>
<path d="M384.001 326.415V319.978L379.021 312.124H382.501L385.417 317.04L388.334 312.124H391.834L386.834 319.978V326.415H384.001Z" fill="#272727"/>
<path d="M397.445 323.332C397.872 323.332 398.221 323.446 398.486 323.665C398.747 323.889 398.924 324.16 399.007 324.478C399.09 324.785 399.08 325.097 398.986 325.415C398.903 325.738 398.726 326.009 398.465 326.228C398.2 326.446 397.861 326.561 397.445 326.561C397.012 326.561 396.663 326.446 396.403 326.228C396.137 326.009 395.965 325.743 395.882 325.436C395.799 325.118 395.799 324.801 395.882 324.478C395.965 324.16 396.137 323.889 396.403 323.665C396.663 323.446 397.012 323.332 397.445 323.332Z" fill="#272727"/>
</svg>
